# WaveFront *.obj file (generated by CINEMA 4D)

v 0 -100 0
v 0 100 0
v 0 0 -50
v 50 0 0
v -0.00000000000001 0 50
v -50 0 -0.00000000000001
# 6 vertices

vn -0.70710676908493 0 0.70710676908493
vn -0.66666668653488 -0.33333334326744 0.66666668653488
vn 0 0 0
vn 0.70710676908493 0 -0.70710676908493
vn 0.66666668653488 -0.33333334326744 -0.66666668653488
vn 0.66666668653488 0.33333334326744 -0.66666668653488
vn 0.70710676908493 0 0.70710676908493
vn 0.66666668653488 0.33333334326744 0.66666668653488
vn 0.66666668653488 -0.33333334326744 0.66666668653488
vn -0.70710676908493 0 -0.70710676908493
vn -0.66666668653488 -0.33333334326744 -0.66666668653488
vn -0.66666668653488 0.33333334326744 -0.66666668653488
vn -0.66666668653488 0.33333334326744 0.66666668653488
# 13 normals

vt 0.5 0.5 0
vt 0.75 0.5 0
vt 0.625 0 0
vt 0 0.5 0
vt 0.25 0.5 0
vt 0.125 0 0
vt 0.125 1 0
vt 0.875 1 0
vt 1 0.5 0
vt 0.875 0 0
vt 0.375 0 0
vt 0.375 1 0
vt 0.625 1 0
# 13 texture coordinates

o Cylinder
usemtl default
f 1/3/2 5/2/1 6/1/1
f 1/6/5 3/5/4 4/4/4
f 3/5/4 2/7/6 4/4/4
f 4/9/7 2/8/8 5/2/7
f 1/10/9 4/9/7 5/2/7
f 1/11/11 6/1/10 3/5/10
f 6/1/10 2/12/12 3/5/10
f 5/2/1 2/13/13 6/1/1

